<?xml version="1.0" encoding="utf-8"?>
<!-- Generator: Adobe Illustrator 24.2.1, SVG Export Plug-In . SVG Version: 6.00 Build 0)  -->
<svg version="1.1" xmlns="http://www.w3.org/2000/svg" xmlns:xlink="http://www.w3.org/1999/xlink" x="0px" y="0px"
	 viewBox="0 0 1303.94 793.7" enable-background="new 0 0 1303.94 793.7" xml:space="preserve">
<g id="TITLE">
	<g>
		
			<text transform="matrix(1.0754 0 0 1 429.3359 82.9097)" fill="#1A1A1A" font-family="'FranklinGothic-Heavy'" font-size="26.9053px">ABSOLUT BAZAAR x GAYA RAYA 2026</text>
		
			<text transform="matrix(1.1245 0 0 1 634.6064 101.1743)" fill="#1A1A1A" font-family="'FranklinGothic-Medium'" font-size="12.8762px">HALL 1 , MITEC</text>
		
			<text transform="matrix(0.9896 0 0 1 595.3164 119.8393)" fill="#1A1A1A" font-family="'FranklinGothic-Medium'" font-size="15.6887px">13 MARCH - 16 MARCH 2026</text>
	</g>
	<text transform="matrix(1.1245 0 0 1 811.1758 118.0522)" fill="#FF2A2A" font-family="'ArialMT'" font-size="8.5004px">TENTATIVE DATE</text>
</g>
<g id="PILLAR">
	<g>
		<path d="M493.2,318.76h22.07v23.8H493.2V318.76z M833.3,319.15h22.07v23.8H833.3V319.15z M128.89,320.6h22.07v23.8h-22.07V320.6z"
			/>
	</g>
</g>
<g id="P1">
	<g id="P1_1_">
		<path fill="#5FBCD3" d="M196.32,499.72h83.05v81.63h-83.05V499.72z"/>
		<text transform="matrix(0.8432 0 0 1 222.7246 553.0659)" fill="#7FFF2A" font-family="'ArialMT'" font-size="30.113px">P1</text>
	</g>
</g>
<g id="P2">
	<g id="P2_1_">
		<path fill="#5FBCD3" d="M319.49,499.72h83.05v81.63h-83.05V499.72z"/>
		<text transform="matrix(0.8432 0 0 1 347.4395 553.5229)" fill="#7FFF2A" font-family="'ArialMT'" font-size="30.113px">P2</text>
	</g>
</g>
<g id="P3">
	<g>
		<path fill="#5FBCD3" d="M442.66,499.72h83.05v81.63h-83.05V499.72z"/>
		<text transform="matrix(0.8432 0 0 1 466.7061 553.3803)" fill="#7FFF2A" font-family="'ArialMT'" font-size="30.113px">P3</text>
	</g>
</g>
<g id="WALL">
	<g>
		<text transform="matrix(0.9972 0 0 1 347.5947 659.6694)" font-family="'ArialMT'" font-size="15.6294px">ENTRANCE / EXIT</text>
		<path d="M96.44,126.61h6.62v530.84h-6.62V126.61z"/>
		<path d="M101.96,651.91h209.7v5.53h-209.7V651.91z M516.5,657.33h684.94v5.48H516.5V657.33z"/>
		<path d="M1193.5,136.84h7.72v522.43h-7.72V136.84z M326.1,136.88h866.27v12.52H326.1V136.88z"/>
	</g>
</g>
<g id="LOADING_BAY">
	<g>
		<path fill="#87CDDE" d="M177.01,105.13h150.1v37.63h-150.1V105.13z"/>
		<text transform="matrix(0.9972 0 0 1 193.7256 129.2065)" font-family="'ArialMT'" font-size="15.6294px">LOADING BAY 1</text>
	</g>
</g>
<g id="DINING_AREA">
	<g>
		<path fill="#7FFF2A" d="M573,374.46h284.85v88.76H573V374.46z"/>
		<text transform="matrix(1.0247 0 0 1 629.5644 414.0466)" font-family="'Arial-BoldMT'" font-size="27.7373px">OPEN DINING</text>
		<text transform="matrix(1.0247 0 0 1 679.8383 448.7185)" font-family="'Arial-BoldMT'" font-size="27.7373px"> AREA</text>
	</g>
</g>
<g id="S1">
	<g>
		<path fill="#FF00FF" d="M520.13,614.15h33.56v34.83h-33.56V614.15z"/>
		<text transform="matrix(0.9972 0 0 1 529.8123 635.4453)" font-family="'ArialMT'" font-size="11.7206px">S1</text>
	</g>
</g>
<g id="S2">
	<g>
		<path fill="#FF6600" d="M555.1,614.15h33.56v34.83H555.1V614.15z"/>
		<text transform="matrix(0.9972 0 0 1 564.7875 635.4589)" font-family="'ArialMT'" font-size="11.7206px">S2</text>
	</g>
</g>
<g id="S3">
	<g>
		<path fill="#FF6600" d="M590.08,614.15h33.56v34.83h-33.56V614.15z"/>
		<text transform="matrix(0.9972 0 0 1 599.7578 635.4509)" font-family="'ArialMT'" font-size="11.7206px">S3</text>
	</g>
</g>
<g id="S4">
	<g>
		<path fill="#FF6600" d="M625.05,614.15h33.56v34.83h-33.56V614.15z"/>
		<text transform="matrix(0.9972 0 0 1 634.5004 635.8199)" font-family="'ArialMT'" font-size="11.7206px">S4</text>
	</g>
</g>
<g id="S5">
	<g>
		<path fill="#FF6600" d="M660.03,614.15h33.56v34.83h-33.56L660.03,614.15z"/>
		<text transform="matrix(0.9971 0 0 1 669.7128 635.4772)" font-family="'ArialMT'" font-size="11.7209px">S5</text>
	</g>
</g>
<g id="S6">
	<g>
		<path fill="#FF6600" d="M695,614.15h33.56v34.83H695L695,614.15z"/>
		<text transform="matrix(0.9971 0 0 1 704.6898 635.4771)" font-family="'ArialMT'" font-size="11.7209px">S6</text>
	</g>
</g>
<g id="S7">
	<g>
		<path fill="#FF6600" d="M729.98,614.15h33.56v34.83h-33.56L729.98,614.15z"/>
		<text transform="matrix(0.9971 0 0 1 739.6659 635.4769)" font-family="'ArialMT'" font-size="11.7209px">S7</text>
	</g>
</g>
<g id="S8">
	<g>
		<path fill="#FF6600" d="M764.96,614.15h33.56v34.83h-33.56L764.96,614.15z"/>
		<text transform="matrix(0.9971 0 0 1 774.6429 635.4769)" font-family="'ArialMT'" font-size="11.7209px">S8</text>
	</g>
</g>
<g id="S9">
	<g>
		<path fill="#FF6600" d="M799.93,614.15h33.56v34.83h-33.56V614.15z"/>
		<text transform="matrix(0.9972 0 0 1 809.6204 635.4552)" font-family="'ArialMT'" font-size="11.7206px">S9</text>
	</g>
</g>
<g id="S10">
	<g>
		<path fill="#FF6600" d="M834.9,614.15h33.56v34.83H834.9V614.15z"/>
		<text transform="matrix(0.9972 0 0 1 841.3456 635.4689)" font-family="'ArialMT'" font-size="11.7206px">S10</text>
	</g>
</g>
<g id="S11">
	<g>
		<path fill="#FF6600" d="M869.88,614.15h33.56v34.83h-33.56V614.15z"/>
		<text transform="matrix(0.9972 0 0 1 876.7487 635.4608)" font-family="'ArialMT'" font-size="11.7206px">S11</text>
	</g>
</g>
<g id="S12">
	<g>
		<path fill="#FF6600" d="M904.85,614.15h33.56v34.83h-33.56V614.15z"/>
		<text transform="matrix(0.9972 0 0 1 911.2912 635.4471)" font-family="'ArialMT'" font-size="11.7206px">S12</text>
	</g>
</g>
<g id="S13">
	<g>
		<path fill="#FF6600" d="M939.83,614.15h33.56v34.83h-33.56V614.15z"/>
		<text transform="matrix(0.9972 0 0 1 946.2545 635.4529)" font-family="'ArialMT'" font-size="11.7206px">S13</text>
	</g>
</g>
<g id="S14">
	<g>
		<path fill="#FF6600" d="M974.8,614.15h33.56v34.83H974.8V614.15z"/>
		<text transform="matrix(0.9972 0 0 1 981.2298 635.4695)" font-family="'ArialMT'" font-size="11.7206px">S14</text>
	</g>
</g>
<g id="S15">
	<g>
		<path fill="#FF6600" d="M1009.77,614.15h33.56v34.83h-33.56V614.15z"/>
		<text transform="matrix(0.9972 0 0 1 1016.2002 635.4585)" font-family="'ArialMT'" font-size="11.7206px">S15</text>
	</g>
</g>
<g id="S16">
	<g>
		<path fill="#FF6600" d="M1044.75,614.15h33.56v34.83h-33.56V614.15z"/>
		<text transform="matrix(0.9972 0 0 1 1051.1725 635.4448)" font-family="'ArialMT'" font-size="11.7206px">S16</text>
	</g>
</g>
<g id="S17">
	<g>
		<path fill="#FF6600" d="M1079.72,614.15h33.56v34.83h-33.56V614.15z"/>
		<text transform="matrix(0.9972 0 0 1 1086.1475 635.4491)" font-family="'ArialMT'" font-size="11.7206px">S17</text>
	</g>
</g>
<g id="S18">
	<g>
		<path fill="#FF00FF" d="M1114.7,614.15h33.56v34.83h-33.56V614.15z"/>
		<text transform="matrix(0.9972 0 0 1 1121.1279 635.4497)" font-family="'ArialMT'" font-size="11.7206px">S18</text>
	</g>
</g>
<g id="S19">
	<g>
		<path fill="#FF00FF" d="M1151.57,559.39h33.56v34.83h-33.56V559.39z"/>
		<text transform="matrix(0.9972 0 0 1 1158.0244 580.6928)" font-family="'ArialMT'" font-size="11.7206px">S19</text>
	</g>
</g>
<g id="S20">
	<g>
		<path fill="#FF6600" d="M1151.57,523.22h33.56v34.83h-33.56V523.22z"/>
		<text transform="matrix(0.9972 0 0 1 1158.0273 544.5287)" font-family="'ArialMT'" font-size="11.7206px">S20</text>
	</g>
</g>
<g id="S21">
	<g>
		<path fill="#FF6600" d="M1151.57,487.05h33.56v34.83h-33.56V487.05z"/>
		<text transform="matrix(0.9972 0 0 1 1157.2568 508.8647)" font-family="'ArialMT'" font-size="11.7206px">S21</text>
	</g>
</g>
<g id="S22">
	<g>
		<path fill="#FF6600" d="M1151.57,450.91h33.56v34.83h-33.56V450.91z"/>
		<text transform="matrix(0.9972 0 0 1 1158.0273 472.2075)" font-family="'ArialMT'" font-size="11.7206px">S22</text>
	</g>
</g>
<g id="S23">
	<g>
		<path fill="#FF6600" d="M1151.57,414.99h33.56v34.83h-33.56V414.99z"/>
		<text transform="matrix(0.9972 0 0 1 1158.0273 436.2924)" font-family="'ArialMT'" font-size="11.7206px">S23</text>
	</g>
</g>
<g id="S24">
	<g>
		<path fill="#FF6600" d="M1151.57,379.08h33.56v34.83h-33.56V379.08z"/>
		<text transform="matrix(0.9972 0 0 1 1157.8291 400.3784)" font-family="'ArialMT'" font-size="11.7206px">S24</text>
	</g>
</g>
<g id="S25">
	<g>
		<path fill="#FF00FF" d="M1151.8,342.96h33.56v34.83h-33.56V342.96z"/>
		<text transform="matrix(0.9972 0 0 1 1158.2393 364.2631)" font-family="'ArialMT'" font-size="11.7206px">S25</text>
	</g>
</g>
<g id="S26">
	<g>
		<path fill="#FF00FF" d="M1151.09,268.95h33.56v34.83h-33.56V268.95z"/>
		<text transform="matrix(0.9972 0 0 1 1157.5234 290.2631)" font-family="'ArialMT'" font-size="11.7206px">S26</text>
	</g>
</g>
<g id="S27">
	<g>
		<path fill="#FF00FF" d="M1150.84,232.82h33.56v34.83h-33.56V232.82z"/>
		<text transform="matrix(0.9972 0 0 1 1157.2627 254.1342)" font-family="'ArialMT'" font-size="11.7206px">S27</text>
	</g>
</g>
<g id="S28">
	<g>
		<path fill="#FF00FF" d="M1075.12,200.54h33.56v34.83h-33.56V200.54z"/>
		<text transform="matrix(0.9972 0 0 1 1081.5586 221.853)" font-family="'ArialMT'" font-size="11.7206px">S28</text>
	</g>
</g>
<g id="S29">
	<g>
		<path fill="#FF6600" d="M1039.86,200.2h33.56v34.83h-33.56V200.2z"/>
		<text transform="matrix(0.9972 0 0 1 1046.29 221.5112)" font-family="'ArialMT'" font-size="11.7206px">S29</text>
	</g>
</g>
<g id="S30">
	<g>
		<path fill="#FF6600" d="M1005.02,200.62h33.56v34.83h-33.56V200.62z"/>
		<text transform="matrix(0.9972 0 0 1 1011.4512 221.935)" font-family="'ArialMT'" font-size="11.7206px">S30</text>
	</g>
</g>
<g id="S31">
	<g>
		<path fill="#FF6600" d="M970.5,200.57h33.56v34.83H970.5V200.57z"/>
		<text transform="matrix(0.9972 0 0 1 976.9229 221.8901)" font-family="'ArialMT'" font-size="11.7206px">S31</text>
	</g>
</g>
<g id="S32">
	<g>
		<path fill="#FF6600" d="M935.97,200.33h33.56v34.83h-33.56V200.33z"/>
		<text transform="matrix(0.9972 0 0 1 942.4014 221.6459)" font-family="'ArialMT'" font-size="11.7206px">S32</text>
	</g>
</g>
<g id="S33">
	<g>
		<path fill="#FF6600" d="M901.45,200.28H935v34.83h-33.56V200.28z"/>
		<text transform="matrix(0.9972 0 0 1 907.874 221.603)" font-family="'ArialMT'" font-size="11.7206px">S33</text>
	</g>
</g>
<g id="S34">
	<g>
		<path fill="#FF6600" d="M866.66,200.25h33.56v34.83h-33.56V200.25z"/>
		<text transform="matrix(0.9972 0 0 1 873.1025 221.5659)" font-family="'ArialMT'" font-size="11.7206px">S34</text>
	</g>
</g>
<g id="S35">
	<g>
		<path fill="#FF6600" d="M832.14,200.21h33.56v34.83h-33.56V200.21z"/>
		<text transform="matrix(0.9972 0 0 1 838.5752 221.5229)" font-family="'ArialMT'" font-size="11.7206px">S35</text>
	</g>
</g>
<g id="S36">
	<g>
		<path fill="#FF6600" d="M797.61,199.96h33.56v34.83h-33.56V199.96z"/>
		<text transform="matrix(0.9972 0 0 1 804.0527 221.2768)" font-family="'ArialMT'" font-size="11.7206px">S36</text>
	</g>
</g>
<g id="S37">
	<g>
		<path fill="#FF6600" d="M763.09,199.92h33.56v34.83h-33.56V199.92z"/>
		<text transform="matrix(0.9972 0 0 1 769.5283 221.2338)" font-family="'ArialMT'" font-size="11.7206px">S37</text>
	</g>
</g>
<g id="S38">
	<g>
		<path fill="#FF6600" d="M727.74,199.73h33.56v34.83h-33.56V199.73z"/>
		<text transform="matrix(0.9972 0 0 1 734.1885 221.0463)" font-family="'ArialMT'" font-size="11.7206px">S38</text>
	</g>
</g>
<g id="S39">
	<g>
		<path fill="#FF6600" d="M693.21,199.69h33.56v34.83h-33.56V199.69z"/>
		<text transform="matrix(0.9972 0 0 1 699.6641 221.0034)" font-family="'ArialMT'" font-size="11.7206px">S39</text>
	</g>
</g>
<g id="S40">
	<g>
		<path fill="#FF6600" d="M658.71,199.44h33.56v34.83h-33.56V199.44z"/>
		<text transform="matrix(0.9972 0 0 1 665.1416 220.7573)" font-family="'ArialMT'" font-size="11.7206px">S40</text>
	</g>
</g>
<g id="S41">
	<g>
		<path fill="#FF6600" d="M624.19,199.4h33.56v34.83h-33.56V199.4z"/>
		<text transform="matrix(0.9972 0 0 1 630.6143 220.7143)" font-family="'ArialMT'" font-size="11.7206px">S41</text>
	</g>
</g>
<g id="S42">
	<g>
		<path fill="#FF6600" d="M589.41,199.36h33.56v34.83h-33.56V199.36z"/>
		<text transform="matrix(0.9972 0 0 1 595.8438 220.6772)" font-family="'ArialMT'" font-size="11.7206px">S42</text>
	</g>
</g>
<g id="S43">
	<g>
		<path fill="#FF6600" d="M554.88,199.32h33.56v34.83h-33.56V199.32z"/>
		<text transform="matrix(0.9972 0 0 1 561.3154 220.6342)" font-family="'ArialMT'" font-size="11.7206px">S43</text>
	</g>
</g>
<g id="S44">
	<g>
		<path fill="#FF6600" d="M520.36,199.07h33.56v34.83h-33.56V199.07z"/>
		<text transform="matrix(0.9972 0 0 1 526.7939 220.3881)" font-family="'ArialMT'" font-size="11.7206px">S44</text>
	</g>
</g>
<g id="S45">
	<g>
		<path fill="#FF6600" d="M485.83,199.03h33.56v34.83h-33.56V199.03z"/>
		<text transform="matrix(0.9972 0 0 1 492.2666 220.3452)" font-family="'ArialMT'" font-size="11.7206px">S45</text>
	</g>
</g>
<g id="S46">
	<g>
		<path fill="#FF6600" d="M451.28,199.08h33.56v34.83h-33.56V199.08z"/>
		<text transform="matrix(0.9972 0 0 1 457.7188 220.394)" font-family="'ArialMT'" font-size="11.7206px">S46</text>
	</g>
</g>
<g id="S47">
	<g>
		<path fill="#FF6600" d="M416.75,199.03h33.56v34.83h-33.56V199.03z"/>
		<text transform="matrix(0.9972 0 0 1 423.1943 220.351)" font-family="'ArialMT'" font-size="11.7206px">S47</text>
	</g>
</g>
<g id="S48">
	<g>
		<path fill="#FF6600" d="M382.22,198.79h33.56v34.83h-33.56V198.79z"/>
		<text transform="matrix(0.9972 0 0 1 388.6719 220.1049)" font-family="'ArialMT'" font-size="11.7206px">S48</text>
	</g>
</g>
<g id="S49">
	<g>
		<path fill="#FF6600" d="M347.7,198.75h33.56v34.83H347.7V198.75z"/>
		<text transform="matrix(0.9972 0 0 1 354.1445 220.062)" font-family="'ArialMT'" font-size="11.7206px">S49</text>
	</g>
</g>
<g id="S50">
	<g>
		<path fill="#FF6600" d="M313.06,198.81h33.56v34.83h-33.56V198.81z"/>
		<text transform="matrix(0.9972 0 0 1 319.4922 220.1205)" font-family="'ArialMT'" font-size="11.7206px">S50</text>
	</g>
</g>
<g id="S51">
	<g>
		<path fill="#FF6600" d="M278.53,198.76h33.56v34.83h-33.56V198.76z"/>
		<text transform="matrix(0.9972 0 0 1 284.9648 220.0776)" font-family="'ArialMT'" font-size="11.7206px">S51</text>
	</g>
</g>
<g id="S52">
	<g>
		<path fill="#FF00FF" d="M243.93,198.66h33.56v34.83h-33.56V198.66z"/>
		<text transform="matrix(0.9972 0 0 1 250.3672 219.9799)" font-family="'ArialMT'" font-size="11.7206px">S52</text>
	</g>
</g>
<g id="S53">
	<g>
		<path fill="#FF00FF" d="M128.76,207.55h33.56v34.83h-33.56V207.55z"/>
		<text transform="matrix(0.9972 0 0 1 134.154 229.4467)" font-family="'ArialMT'" font-size="11.7206px">S53</text>
	</g>
</g>
<g id="S54">
	<g>
		<path fill="#FF6600" d="M128.76,244.05h33.56v34.83h-33.56V244.05z"/>
		<text transform="matrix(0.9972 0 0 1 135.1982 265.3608)" font-family="'ArialMT'" font-size="11.7206px">S54</text>
	</g>
</g>
<g id="S55">
	<g>
		<path fill="#FF00FF" d="M128.76,279.96h33.56v34.83h-33.56V279.96z"/>
		<text transform="matrix(0.9972 0 0 1 135.1982 301.2739)" font-family="'ArialMT'" font-size="11.7206px">S55</text>
	</g>
</g>
<g id="S56">
	<g>
		<path fill="#FF00FF" d="M128.47,357.14h33.56v34.83h-33.56V357.14z"/>
		<text transform="matrix(0.9972 0 0 1 134.7119 378.4506)" font-family="'ArialMT'" font-size="11.7206px">S56</text>
	</g>
</g>
<g id="S57">
	<g>
		<path fill="#FF6600" d="M128.47,393.05h33.56v34.83h-33.56V393.05z"/>
		<text transform="matrix(0.9972 0 0 1 134.9102 414.3647)" font-family="'ArialMT'" font-size="11.7206px">S57</text>
	</g>
</g>
<g id="S58">
	<g>
		<path fill="#FF6600" d="M128.47,428.97h33.56v34.83h-33.56V428.97z"/>
		<text transform="matrix(0.9972 0 0 1 134.9102 450.2758)" font-family="'ArialMT'" font-size="11.7206px">S58</text>
	</g>
</g>
<g id="S59">
	<g>
		<path fill="#FF6600" d="M128.47,465.14h33.56v34.83h-33.56V465.14z"/>
		<text transform="matrix(0.9972 0 0 1 134.1396 486.937)" font-family="'ArialMT'" font-size="11.7206px">S59</text>
	</g>
</g>
<g id="S60">
	<g>
		<path fill="#FF6600" d="M128.47,501.31h33.56v34.83h-33.56V501.31z"/>
		<text transform="matrix(0.9972 0 0 1 134.9102 522.601)" font-family="'ArialMT'" font-size="11.7206px">S60</text>
	</g>
</g>
<g id="S61">
	<g>
		<path fill="#FF00FF" d="M128.47,537.45h33.56v34.83h-33.56V537.45z"/>
		<text transform="matrix(0.9972 0 0 1 134.9102 558.7651)" font-family="'ArialMT'" font-size="11.7206px">S61</text>
	</g>
</g>
<g id="S62">
	<g>
		<path fill="#FF00FF" d="M170.36,612.57h33.56v34.83h-33.56V612.57z"/>
		<text transform="matrix(0.9972 0 0 1 176.7998 633.8578)" font-family="'ArialMT'" font-size="11.7206px">S62</text>
	</g>
</g>
<g id="S63">
	<g>
		<path fill="#FF6600" d="M204.89,612.6h33.56v34.83h-33.56V612.6z"/>
		<text transform="matrix(0.9972 0 0 1 211.3271 633.8998)" font-family="'ArialMT'" font-size="11.7206px">S63</text>
	</g>
</g>
<g id="S64">
	<g>
		<path fill="#FF6600" d="M239.41,612.85h33.56v34.83h-33.56V612.85z"/>
		<text transform="matrix(0.9972 0 0 1 245.8486 634.1469)" font-family="'ArialMT'" font-size="11.7206px">S64</text>
	</g>
</g>
<g id="S65">
	<g>
		<path fill="#FF00FF" d="M273.94,612.88h33.56v34.83h-33.56V612.88z"/>
		<text transform="matrix(0.9972 0 0 1 280.377 634.1899)" font-family="'ArialMT'" font-size="11.7206px">S65</text>
	</g>
</g>
<g id="_x31_01_1_">
	<g>
		<path fill="#FFFF00" d="M572.37,540.43h40.59v40.92h-40.59V540.43z"/>
		<text transform="matrix(0.9972 0 0 1 583.9463 566.3862)" font-family="'ArialMT'" font-size="11.7206px">101</text>
	</g>
</g>
<g id="_x31_02">
	<g>
		<path fill="#B3B3B3" d="M614.38,540.43h40.59v40.92h-40.59V540.43z"/>
		<text transform="matrix(0.9972 0 0 1 625.9407 566.3862)" font-family="'ArialMT'" font-size="11.7206px">102</text>
	</g>
</g>
<g id="_x31_03">
	<g>
		<path fill="#B3B3B3" d="M656.4,540.43h40.59v40.92H656.4V540.43z"/>
		<text transform="matrix(0.9972 0 0 1 667.9762 566.3862)" font-family="'ArialMT'" font-size="11.7206px">103</text>
	</g>
</g>
<g id="_x31_04">
	<g>
		<path fill="#B3B3B3" d="M698.41,540.31H739v40.92h-40.6V540.31z"/>
		<text transform="matrix(0.9972 0 0 1 709.9807 566.2592)" font-family="'ArialMT'" font-size="11.7206px">104</text>
	</g>
</g>
<g id="_x31_05">
	<g>
		<path fill="#B3B3B3" d="M740.42,540.31h40.6v40.92h-40.6V540.31z"/>
		<text transform="matrix(0.9972 0 0 1 751.9868 566.2592)" font-family="'ArialMT'" font-size="11.7206px">105</text>
	</g>
</g>
<g id="_x31_06">
	<g>
		<path fill="#B3B3B3" d="M782.43,540.31h40.59v40.92h-40.59V540.31z"/>
		<text transform="matrix(0.9972 0 0 1 794.0138 566.2592)" font-family="'ArialMT'" font-size="11.7206px">106</text>
	</g>
</g>
<g id="_x31_07">
	<g>
		<path fill="#FFFF00" d="M824.45,540.31h40.59v40.92h-40.59V540.31z"/>
		<text transform="matrix(0.9972 0 0 1 836.0038 566.2592)" font-family="'ArialMT'" font-size="11.7206px">107</text>
	</g>
</g>
<g id="_x31_08">
	<g>
		<path fill="#FFFF00" d="M901.81,540.34h40.59v40.92h-40.59V540.34z"/>
		<text transform="matrix(0.9972 0 0 1 913.373 566.3012)" font-family="'ArialMT'" font-size="11.7206px">108</text>
	</g>
</g>
<g id="_x31_09">
	<g>
		<path fill="#B3B3B3" d="M943.83,540.23h40.6v40.92h-40.6V540.23z"/>
		<text transform="matrix(0.9972 0 0 1 955.4059 566.1733)" font-family="'ArialMT'" font-size="11.7206px">109</text>
	</g>
</g>
<g id="_x31_10">
	<g>
		<path fill="#B3B3B3" d="M985.84,540.23h40.59v40.92h-40.59V540.23z"/>
		<text transform="matrix(0.9972 0 0 1 997.8458 566.1733)" font-family="'ArialMT'" font-size="11.7206px">110</text>
	</g>
</g>
<g id="_x31_11">
	<g>
		<path fill="#B3B3B3" d="M1027.85,540.23h40.59v40.92h-40.59V540.23z"/>
		<text transform="matrix(0.9972 0 0 1 1040.2778 566.1733)" font-family="'ArialMT'" font-size="11.7206px">111</text>
	</g>
</g>
<g id="_x31_12">
	<g>
		<path fill="#FFFF00" d="M1069.86,540.23h40.59v40.92h-40.59V540.23z"/>
		<text transform="matrix(0.9972 0 0 1 1081.8638 566.1733)" font-family="'ArialMT'" font-size="11.7206px">112</text>
	</g>
</g>
<g id="_x31_13">
	<g>
		<path fill="#FFFF00" d="M1069.89,497.89h40.59v40.92h-40.59V497.89z"/>
		<text transform="matrix(0.9972 0 0 1 1081.892 523.8479)" font-family="'ArialMT'" font-size="11.7206px">113</text>
	</g>
</g>
<g id="_x31_14">
	<g>
		<path fill="#B3B3B3" d="M1027.88,497.89h40.59v40.92h-40.59V497.89z"/>
		<text transform="matrix(0.9972 0 0 1 1039.8755 523.8479)" font-family="'ArialMT'" font-size="11.7206px">114</text>
	</g>
</g>
<g id="_x31_15">
	<g>
		<path fill="#B3B3B3" d="M985.87,497.89h40.59v40.92h-40.59V497.89z"/>
		<text transform="matrix(0.9972 0 0 1 997.8741 523.8479)" font-family="'ArialMT'" font-size="11.7206px">115</text>
	</g>
</g>
<g id="_x31_16">
	<g>
		<path fill="#B3B3B3" d="M943.85,497.89h40.59v40.92h-40.59V497.89z"/>
		<text transform="matrix(0.9972 0 0 1 955.8678 523.8479)" font-family="'ArialMT'" font-size="11.7206px">116</text>
	</g>
</g>
<g id="_x31_17">
	<g>
		<path fill="#FFFF00" d="M901.84,497.89h40.59v40.92h-40.59V497.89z"/>
		<text transform="matrix(0.9972 0 0 1 913.8379 523.8625)" font-family="'ArialMT'" font-size="11.7206px">117</text>
	</g>
</g>
<g id="_x31_18">
	<g>
		<path fill="#FFFF00" d="M824.45,497.89h40.6v40.92h-40.6V497.89z"/>
		<text transform="matrix(0.9972 0 0 1 836.4374 523.8478)" font-family="'ArialMT'" font-size="11.7206px">118</text>
	</g>
</g>
<g id="_x31_19">
	<g>
		<path fill="#B3B3B3" d="M782.43,497.89h40.6v40.92h-40.6V497.89z"/>
		<text transform="matrix(0.9972 0 0 1 794.4502 523.8478)" font-family="'ArialMT'" font-size="11.7206px">119</text>
	</g>
</g>
<g id="_x31_20">
	<g>
		<path fill="#B3B3B3" d="M740.42,497.89h40.6v40.92h-40.6V497.89z"/>
		<text transform="matrix(0.9972 0 0 1 751.9868 523.8478)" font-family="'ArialMT'" font-size="11.7206px">120</text>
	</g>
</g>
<g id="_x31_21">
	<g>
		<path fill="#B3B3B3" d="M698.41,497.89H739v40.92h-40.59V497.89z"/>
		<text transform="matrix(0.9972 0 0 1 709.9806 523.8478)" font-family="'ArialMT'" font-size="11.7206px">121</text>
	</g>
</g>
<g id="_x31_22">
	<g>
		<path fill="#B3B3B3" d="M656.4,497.89h40.59v40.92H656.4V497.89z"/>
		<text transform="matrix(0.9972 0 0 1 667.9761 523.8624)" font-family="'ArialMT'" font-size="11.7206px">122</text>
	</g>
</g>
<g id="_x31_23">
	<g>
		<path fill="#B3B3B3" d="M614.38,497.89h40.59v40.92h-40.59V497.89z"/>
		<text transform="matrix(0.9972 0 0 1 625.9407 523.8624)" font-family="'ArialMT'" font-size="11.7206px">123</text>
	</g>
</g>
<g id="_x31_24">
	<g>
		<path fill="#FFFF00" d="M572.37,497.89h40.59v40.92h-40.59V497.89z"/>
		<text transform="matrix(0.9972 0 0 1 583.9463 523.8624)" font-family="'ArialMT'" font-size="11.7206px">124</text>
	</g>
</g>
<g id="_x31_25">
	<g>
		<path fill="#FFFF00" d="M197.27,423h40.59v40.92h-40.59V423z"/>
		<text transform="matrix(0.9972 0 0 1 208.8377 448.9466)" font-family="'ArialMT'" font-size="11.7206px">125</text>
	</g>
</g>
<g id="_x31_26">
	<g>
		<path fill="#B3B3B3" d="M239.28,423h40.59v40.92h-40.59V423z"/>
		<text transform="matrix(0.9972 0 0 1 250.8501 448.9612)" font-family="'ArialMT'" font-size="11.7206px">126</text>
	</g>
</g>
<g id="_x31_27">
	<g>
		<path fill="#FFFF00" d="M281.29,423h40.59v40.92h-40.59V423z"/>
		<text transform="matrix(0.9972 0 0 1 292.8619 448.9614)" font-family="'ArialMT'" font-size="11.7206px">127</text>
	</g>
</g>
<g id="_x31_28">
	<g>
		<path fill="#FFFF00" d="M360.37,423h40.6v40.92h-40.6V423z"/>
		<text transform="matrix(0.9972 0 0 1 371.9258 448.9496)" font-family="'ArialMT'" font-size="11.7206px">128</text>
	</g>
</g>
<g id="_x31_29">
	<g>
		<path fill="#B3B3B3" d="M402.38,423h40.59v40.92h-40.59V423z"/>
		<text transform="matrix(0.9972 0 0 1 413.9495 448.9641)" font-family="'ArialMT'" font-size="11.7206px">129</text>
	</g>
</g>
<g id="_x31_30">
	<g>
		<path fill="#B3B3B3" d="M444.39,423h40.59v40.92h-40.59V423z"/>
		<text transform="matrix(0.9972 0 0 1 455.9567 448.9518)" font-family="'ArialMT'" font-size="11.7206px">130</text>
	</g>
</g>
<g id="_x31_31">
	<g>
		<path fill="#FFFF00" d="M486.41,423H527v40.92h-40.59V423z"/>
		<text transform="matrix(0.9972 0 0 1 497.9745 448.9518)" font-family="'ArialMT'" font-size="11.7206px">131</text>
	</g>
</g>
<g id="_x31_32">
	<g>
		<path fill="#FFFF00" d="M901.84,421.81h40.59v40.92h-40.59V421.81z"/>
		<text transform="matrix(0.9972 0 0 1 913.4136 447.777)" font-family="'ArialMT'" font-size="11.7206px">132</text>
	</g>
</g>
<g id="_x31_33">
	<g>
		<path fill="#B3B3B3" d="M943.85,421.81h40.59v40.92h-40.59V421.81z"/>
		<text transform="matrix(0.9972 0 0 1 955.4181 447.7625)" font-family="'ArialMT'" font-size="11.7206px">133</text>
	</g>
</g>
<g id="_x31_34">
	<g>
		<path fill="#B3B3B3" d="M985.87,421.81h40.59v40.92h-40.59V421.81z"/>
		<text transform="matrix(0.9972 0 0 1 997.4243 447.7625)" font-family="'ArialMT'" font-size="11.7206px">134</text>
	</g>
</g>
<g id="_x31_35">
	<g>
		<path fill="#B3B3B3" d="M1027.88,421.81h40.59v40.92h-40.59V421.81z"/>
		<text transform="matrix(0.9972 0 0 1 1039.4512 447.7625)" font-family="'ArialMT'" font-size="11.7206px">135</text>
	</g>
</g>
<g id="_x31_36">
	<g>
		<path fill="#FFFF00" d="M1069.89,421.81h40.59v40.92h-40.59V421.81z"/>
		<text transform="matrix(0.9972 0 0 1 1081.4696 447.7625)" font-family="'ArialMT'" font-size="11.7206px">136</text>
	</g>
</g>
<g id="_x31_37">
	<g>
		<path fill="#FFFF00" d="M1069.89,379.33h40.59v40.92h-40.59V379.33z"/>
		<text transform="matrix(0.9972 0 0 1 1081.4696 405.2953)" font-family="'ArialMT'" font-size="11.7206px">137</text>
	</g>
</g>
<g id="_x31_38">
	<g>
		<path fill="#B3B3B3" d="M1027.88,379.33h40.59v40.92h-40.59V379.33z"/>
		<text transform="matrix(0.9972 0 0 1 1039.4512 405.2953)" font-family="'ArialMT'" font-size="11.7206px">138</text>
	</g>
</g>
<g id="_x31_39">
	<g>
		<path fill="#B3B3B3" d="M985.87,379.33h40.59v40.92h-40.59V379.33z"/>
		<text transform="matrix(0.9972 0 0 1 997.4243 405.2953)" font-family="'ArialMT'" font-size="11.7206px">139</text>
	</g>
</g>
<g id="_x31_40">
	<g>
		<path fill="#B3B3B3" d="M943.85,379.33h40.59v40.92h-40.59V379.33z"/>
		<text transform="matrix(0.9972 0 0 1 955.4181 405.2953)" font-family="'ArialMT'" font-size="11.7206px">140</text>
	</g>
</g>
<g id="_x31_41">
	<g>
		<path fill="#FFFF00" d="M901.84,379.47h40.59v40.92h-40.59V379.47z"/>
		<text transform="matrix(0.9972 0 0 1 913.4136 405.4233)" font-family="'ArialMT'" font-size="11.7206px">141</text>
	</g>
</g>
<g id="_x31_42">
	<g>
		<path fill="#FFFF00" d="M486.41,381.06H527v40.92h-40.59V381.06z"/>
		<text transform="matrix(0.9972 0 0 1 497.9745 407.0233)" font-family="'ArialMT'" font-size="11.7206px">142</text>
	</g>
</g>
<g id="_x31_43">
	<g>
		<path fill="#B3B3B3" d="M444.39,381.06h40.59v40.92h-40.59V381.06z"/>
		<text transform="matrix(0.9972 0 0 1 455.9566 407.0233)" font-family="'ArialMT'" font-size="11.7206px">143</text>
	</g>
</g>
<g id="_x31_44">
	<g>
		<path fill="#B3B3B3" d="M402.38,381.06h40.59v40.92h-40.59V381.06z"/>
		<text transform="matrix(0.9972 0 0 1 413.9495 407.0073)" font-family="'ArialMT'" font-size="11.7206px">144</text>
	</g>
</g>
<g id="_x31_45">
	<g>
		<path fill="#FFFF00" d="M360.37,381.06h40.6v40.92h-40.6V381.06z"/>
		<text transform="matrix(0.9972 0 0 1 371.9258 407.0262)" font-family="'ArialMT'" font-size="11.7206px">145</text>
	</g>
</g>
<g id="_x31_46">
	<g>
		<path fill="#FFFF00" d="M281.29,380.66h40.59v40.92h-40.59V380.66z"/>
		<text transform="matrix(0.9972 0 0 1 292.8619 406.6293)" font-family="'ArialMT'" font-size="11.7206px">146</text>
	</g>
</g>
<g id="_x31_47">
	<g>
		<path fill="#B3B3B3" d="M239.28,380.66h40.59v40.92h-40.59V380.66z"/>
		<text transform="matrix(0.9972 0 0 1 250.853 406.6358)" font-family="'ArialMT'" font-size="11.7206px">147</text>
	</g>
</g>
<g id="_x31_48">
	<g>
		<path fill="#FFFF00" d="M197.27,380.66h40.59v40.92h-40.59V380.66z"/>
		<text transform="matrix(0.9972 0 0 1 208.8377 406.6263)" font-family="'ArialMT'" font-size="11.7206px">148</text>
	</g>
</g>
<g id="_x31_49">
	<g>
		<path fill="#FFFF00" d="M197.27,305.33h40.59v40.92h-40.59V305.33z"/>
		<text transform="matrix(0.9972 0 0 1 208.8389 331.3032)" font-family="'ArialMT'" font-size="11.7206px">149</text>
	</g>
</g>
<g id="_x31_50">
	<g>
		<path fill="#B3B3B3" d="M239.28,305.33h40.59v40.92h-40.59V305.33z"/>
		<text transform="matrix(0.9972 0 0 1 250.8512 331.2894)" font-family="'ArialMT'" font-size="11.7206px">150</text>
	</g>
</g>
<g id="_x31_51">
	<g>
		<path fill="#FFFF00" d="M281.29,305.33h40.59v40.92h-40.59V305.33z"/>
		<text transform="matrix(0.9972 0 0 1 292.8649 331.2887)" font-family="'ArialMT'" font-size="11.7206px">151</text>
	</g>
</g>
<g id="_x31_52">
	<g>
		<path fill="#FFFF00" d="M360.37,306.11h40.6v40.92h-40.6V306.11z"/>
		<text transform="matrix(0.9972 0 0 1 371.9258 332.0707)" font-family="'ArialMT'" font-size="11.7206px">152</text>
	</g>
</g>
<g id="_x31_53">
	<g>
		<path fill="#B3B3B3" d="M402.38,306.2h40.59v40.92h-40.59V306.2z"/>
		<text transform="matrix(0.9972 0 0 1 413.9495 332.1694)" font-family="'ArialMT'" font-size="11.7206px">153</text>
	</g>
</g>
<g id="_x31_54">
	<g>
		<path fill="#B3B3B3" d="M444.39,305.74h40.59v40.92h-40.59V305.74z"/>
		<text transform="matrix(0.9972 0 0 1 455.9567 331.7045)" font-family="'ArialMT'" font-size="11.7206px">154</text>
	</g>
</g>
<g id="_x31_55">
	<g>
		<path fill="#FFFF00" d="M572.37,306.35h40.59v40.92h-40.59V306.35z"/>
		<text transform="matrix(0.9972 0 0 1 583.9463 332.314)" font-family="'ArialMT'" font-size="11.7206px">155</text>
	</g>
</g>
<g id="_x31_56">
	<g>
		<path fill="#B3B3B3" d="M614.38,306.35h40.59v40.92h-40.59V306.35z"/>
		<text transform="matrix(0.9972 0 0 1 625.9407 332.314)" font-family="'ArialMT'" font-size="11.7206px">156</text>
	</g>
</g>
<g id="_x31_57">
	<g>
		<path fill="#B3B3B3" d="M656.4,306.35h40.59v40.92H656.4V306.35z"/>
		<text transform="matrix(0.9972 0 0 1 667.9762 332.314)" font-family="'ArialMT'" font-size="11.7206px">157</text>
	</g>
</g>
<g id="_x31_58">
	<g>
		<path fill="#B3B3B3" d="M698.41,306.35H739v40.92h-40.6V306.35z"/>
		<text transform="matrix(0.9972 0 0 1 709.9807 332.3278)" font-family="'ArialMT'" font-size="11.7206px">158</text>
	</g>
</g>
<g id="_x31_59">
	<g>
		<path fill="#B3B3B3" d="M740.42,306.35h40.6v40.92h-40.6V306.35z"/>
		<text transform="matrix(0.9972 0 0 1 751.9868 332.3278)" font-family="'ArialMT'" font-size="11.7206px">159</text>
	</g>
</g>
<g id="_x31_60">
	<g>
		<path fill="#FFFF00" d="M782.43,306.35h40.59v40.92h-40.59V306.35z"/>
		<text transform="matrix(0.9971 0 0 1 793.9996 332.3243)" font-family="'ArialMT'" font-size="11.7209px">160</text>
	</g>
</g>
<g id="_x31_61">
	<g>
		<path fill="#FFFF00" d="M901.84,307.92h40.59v40.92h-40.59V307.92z"/>
		<text transform="matrix(0.9972 0 0 1 913.4037 333.8946)" font-family="'ArialMT'" font-size="11.7206px">161</text>
	</g>
</g>
<g id="_x31_62">
	<g>
		<path fill="#B3B3B3" d="M943.85,307.92h40.59v40.92h-40.59V307.92z"/>
		<text transform="matrix(0.9972 0 0 1 955.4356 333.8801)" font-family="'ArialMT'" font-size="11.7206px">162</text>
	</g>
</g>
<g id="_x31_63">
	<g>
		<path fill="#B3B3B3" d="M985.87,307.92h40.59v40.92h-40.59V307.92z"/>
		<text transform="matrix(0.9972 0 0 1 997.4427 333.8801)" font-family="'ArialMT'" font-size="11.7206px">163</text>
	</g>
</g>
<g id="_x31_64">
	<g>
		<path fill="#B3B3B3" d="M1027.88,307.92h40.59v40.92h-40.59V307.92z"/>
		<text transform="matrix(0.9972 0 0 1 1039.4413 333.8801)" font-family="'ArialMT'" font-size="11.7206px">164</text>
	</g>
</g>
<g id="_x31_65">
	<g>
		<path fill="#FFFF00" d="M1069.89,307.92h40.59v40.92h-40.59V307.92z"/>
		<text transform="matrix(0.9972 0 0 1 1081.4597 333.8801)" font-family="'ArialMT'" font-size="11.7206px">165</text>
	</g>
</g>
<g id="_x31_66">
	<g>
		<path fill="#FFFF00" d="M1069.89,265.46h40.59v40.92h-40.59V265.46z"/>
		<text transform="matrix(0.9972 0 0 1 1081.4597 291.4272)" font-family="'ArialMT'" font-size="11.7206px">166</text>
	</g>
</g>
<g id="_x31_67">
	<g>
		<path fill="#B3B3B3" d="M1027.88,265.46h40.59v40.92h-40.59V265.46z"/>
		<text transform="matrix(0.9972 0 0 1 1039.4432 291.4272)" font-family="'ArialMT'" font-size="11.7206px">167</text>
	</g>
</g>
<g id="_x31_68">
	<g>
		<path fill="#B3B3B3" d="M985.87,265.46h40.59v40.92h-40.59V265.46z"/>
		<text transform="matrix(0.9972 0 0 1 997.4427 291.4272)" font-family="'ArialMT'" font-size="11.7206px">168</text>
	</g>
</g>
<g id="_x31_69">
	<g>
		<path fill="#B3B3B3" d="M943.85,265.46h40.59v40.92h-40.59V265.46z"/>
		<text transform="matrix(0.9972 0 0 1 955.4355 291.4272)" font-family="'ArialMT'" font-size="11.7206px">169</text>
	</g>
</g>
<g id="_x31_70">
	<g>
		<path fill="#FFFF00" d="M901.84,265.59h40.59v40.92h-40.59V265.59z"/>
		<text transform="matrix(0.9972 0 0 1 913.4056 291.5541)" font-family="'ArialMT'" font-size="11.7206px">170</text>
	</g>
</g>
<g id="_x31_71">
	<g>
		<path fill="#FFFF00" d="M824.44,263.89h40.6v40.92h-40.6V263.89z"/>
		<text transform="matrix(0.9972 0 0 1 836.0009 289.8569)" font-family="'ArialMT'" font-size="11.7206px">171</text>
	</g>
</g>
<g id="_x31_72">
	<g>
		<path fill="#B3B3B3" d="M782.43,263.89h40.59v40.92h-40.59V263.89z"/>
		<text transform="matrix(0.9971 0 0 1 793.9996 289.8676)" font-family="'ArialMT'" font-size="11.7209px">172</text>
	</g>
</g>
<g id="_x31_73">
	<g>
		<path fill="#B3B3B3" d="M740.42,263.89h40.6v40.92h-40.6V263.89z"/>
		<text transform="matrix(0.9972 0 0 1 751.9868 289.8569)" font-family="'ArialMT'" font-size="11.7206px">173</text>
	</g>
</g>
<g id="_x31_74">
	<g>
		<path fill="#B3B3B3" d="M698.41,263.89H739v40.92h-40.59V263.89z"/>
		<text transform="matrix(0.9972 0 0 1 709.9806 289.8569)" font-family="'ArialMT'" font-size="11.7206px">174</text>
	</g>
</g>
<g id="_x31_75">
	<g>
		<path fill="#B3B3B3" d="M656.4,264.02h40.59v40.92H656.4V264.02z"/>
		<text transform="matrix(0.9972 0 0 1 667.9761 289.9858)" font-family="'ArialMT'" font-size="11.7206px">175</text>
	</g>
</g>
<g id="_x31_76">
	<g>
		<path fill="#B3B3B3" d="M614.38,264.02h40.59v40.92h-40.59V264.02z"/>
		<text transform="matrix(0.9972 0 0 1 625.9407 289.9858)" font-family="'ArialMT'" font-size="11.7206px">176</text>
	</g>
</g>
<g id="_x31_77">
	<g>
		<path fill="#FFFF00" d="M572.37,264.02h40.59v40.92h-40.59V264.02z"/>
		<text transform="matrix(0.9972 0 0 1 583.9463 289.9858)" font-family="'ArialMT'" font-size="11.7206px">177</text>
	</g>
</g>
<g id="_x31_78">
	<g>
		<path fill="#FFFF00" d="M486.41,264.02H527v40.92h-40.59V264.02z"/>
		<text transform="matrix(0.9972 0 0 1 497.9745 289.9858)" font-family="'ArialMT'" font-size="11.7206px">178</text>
	</g>
</g>
<g id="_x31_79">
	<g>
		<path fill="#B3B3B3" d="M444.39,264.02h40.59v40.92h-40.59V264.02z"/>
		<text transform="matrix(0.9972 0 0 1 455.9566 289.9858)" font-family="'ArialMT'" font-size="11.7206px">179</text>
	</g>
</g>
<g id="_x31_80">
	<g>
		<path fill="#B3B3B3" d="M402.38,264.02h40.59v40.92h-40.59V264.02z"/>
		<text transform="matrix(0.9972 0 0 1 413.9495 289.9829)" font-family="'ArialMT'" font-size="11.7206px">180</text>
	</g>
</g>
<g id="_x31_81">
	<g>
		<path fill="#FFFF00" d="M360.37,264.02h40.6v40.92h-40.6V264.02z"/>
		<text transform="matrix(0.9972 0 0 1 371.9258 289.983)" font-family="'ArialMT'" font-size="11.7206px">181</text>
	</g>
</g>
<g id="_x31_82">
	<g>
		<path fill="#FFFF00" d="M281.29,263h40.59v40.92h-40.59V263z"/>
		<text transform="matrix(0.9972 0 0 1 292.8649 288.9608)" font-family="'ArialMT'" font-size="11.7206px">182</text>
	</g>
</g>
<g id="_x31_83">
	<g>
		<path fill="#B3B3B3" d="M239.28,263h40.59v40.92h-40.59V263z"/>
		<text transform="matrix(0.9972 0 0 1 250.8512 288.9584)" font-family="'ArialMT'" font-size="11.7206px">183</text>
	</g>
</g>
<g id="_x31_84">
	<g id="_x31_01">
		<g>
			<path fill="#FFFF00" d="M197.27,263h40.59v40.92h-40.59V263z"/>
			<text transform="matrix(0.9972 0 0 1 208.8389 288.9565)" font-family="'ArialMT'" font-size="11.7206px">184</text>
		</g>
	</g>
</g>
</svg>
